<svg width="26" height="24" viewBox="0 0 26 24" fill="none" xmlns="http://www.w3.org/2000/svg">
<path d="M22.6952 14.66L22.2722 16.52C21.5397 19.72 18.9502 22 15.2156 22H10.3048C6.57014 22 3.98063 19.72 3.24815 16.52L2.82516 14.66C2.61882 13.75 3.17593 12.72 4.07348 12.37L5.53846 11.8L11.223 9.58999C11.7182 9.39999 12.2443 9.29999 12.7602 9.29999C13.276 9.29999 13.8022 9.39999 14.2974 9.58999L19.9819 11.8L21.4469 12.37C22.3444 12.72 22.9015 13.75 22.6952 14.66Z" fill="#647B64"/>
<path d="M19.9819 8V9.44C19.9819 9.79 19.6105 10.04 19.27 9.9L14.8648 8.19C13.5133 7.68 12.0071 7.68 10.6452 8.2L6.25032 9.91C5.90986 10.05 5.53846 9.8 5.53846 9.45V8C5.53846 6.35 6.93122 5 8.63348 5H16.8869C18.5891 5 19.9819 6.35 19.9819 8Z" fill="#647B64"/>
<path d="M15.3394 5H10.181V3C10.181 2.45 10.6452 2 11.2127 2H14.3077C14.8751 2 15.3394 2.45 15.3394 3V5Z" fill="#647B64"/>
</svg>
